<?xml version="1.0" encoding="UTF-8"?>
<svg id="Camada_1" data-name="Camada 1" xmlns="http://www.w3.org/2000/svg" viewBox="0 0 1024 1024">
  <g>
    <path d="M450.71,946.97c-15.6-3.26-29.15-7.76-43.4-13.26-21.53-8.31-40.82-19.78-58.38-34.68-14.38-12.2-24.67-26.73-33.24-43.91l-11.98,6.81c-5.59,3.18-32.96,19.91-36.12,13.96-.67-1.25.18-5.11,1.47-5.83l35.27-19.7c16.9-9.44,51.96-35.17,62.85-39.94l15.61-6.84c.61-25.09-.82-50.11-6.78-74.6-9.87-12.03-21.35-22.8-29.81-36.06-7.51-11.78-13.93-23.63-19.64-36.34-4.26-9.49-6.73-19.08-10.5-29.45-9.95,11.8-26.29,10.68-35.63-.75-6.35-7.76-9.6-18.09-10.31-28.49-2.43-35.5-19.95-46.13-33.61-81.24-8.4-21.59-16.42-61.81,4.81-78.24,10.6-8.2,23.68-7.44,36.39-.64-11.29-58.52-17.94-115.92-6.24-174.06,12.15-60.34,48.38-111.47,100.68-143.57,30.34-18.62,63.3-31.13,98.56-37.4,32.7-5.81,64.59-5.31,97.22,1.36,49.13,10.03,95.36,32.29,131.6,67.33,32.75,31.67,53.17,73.01,61.45,117.55,10.9,58.63,3.44,110.49-7.26,169.73,9.88-5.27,19.02-8.23,29.37-4.73,18.91,6.41,22.8,27,21.68,45.14-1.37,22.14-8.66,42.76-19.86,61.83-6.22,10.59-12.31,20.47-17.02,31.89-7.18,17.41-1.63,37.13-15.27,53.54-9.51,11.44-25.45,12.15-35.43.94l-9.53,27.64c-5.46,15.83-14.36,29.98-23.93,43.78-5.64,8.13-13.7,14.85-18.36,23.36-3.92,21.5-6.48,47.99-3.03,69.51,12.23.15,21.97,3.35,32.01,8.78l37.74,20.43,48.96,24.93c1.56.8,3.05,3.51,2.91,4.87-.16,1.56-4.19,3.33-6.01,2.65-14.49-5.41-27.83-12.09-42.18-19.38-21,33.09-48.41,60.09-82.29,79.73-61.44,35.62-132.41,48.03-202.76,33.35ZM554.23,500.92c5.43,1.26,9.46,6.26,11.72,11.01,4.79,10.11,3.97,22.55-5.24,29.77-2.06,1.62-4.89,2.86-7.6,4.58,17.24,9.14,38.93,14.08,58.43,18.01,9.63,1.94,19.27,4.24,27.4,9.9,21.49,14.96,12.09,43.86,9.72,65.61,7.35-12.96,16.05-23.93,27.37-33.72,17.47-15.11,29.61-33.06,35.71-55.46,6.01-22.02,10.24-43.65,13.52-66.3,1.93-13.3,7.47-24.79,16.63-34.78l7.97-46.55-6.16-2.98-1.83,3.65-5.19-6.69-1.36,9.04-3.38-1.43,2.1-2.77c.42-.56-3.34-2.39-3.32-3.06.96-54.27-27.7-71.21-26.12-93.62.92-13.12,3.63-25.43,3.89-38.58.28-14.46-2.01-28.79-8.19-41.8-11.04-23.26-32.95-37.77-58.56-39.31-11.56-.7-22.47,1.05-33.84,3.53-86.32,18.81-100.34,18.18-186.43-.43-11.37-2.46-22.36-3.9-33.82-2.96-23.38,1.93-43.27,14.89-54.48,35.46-13.19,24.22-10.92,51.99-6.58,78.56,4.5,27.57-22.77,36.45-25.73,91.99-.07,1.31-.96,4-.7,5.77.22,1.5-2.83,3.14-4.66,4.13l-1.24-2.9c-3.01-.27-6.28-.82-8.81-1.4l-.84,7.19-3.25-2.45,8.62,46.78c10,9.98,16.2,21.87,18.47,35.67,3.31,20.12,6.99,39.33,11.95,59.07,6.03,24,17.77,44.66,37.68,59.62,8.33,6.26,16.25,12.76,23.32,20.5,5.27,5.76,7.89,12.72,12.44,19.5l-4.5-35.01c-2.96-23.07,11.98-37.47,33.73-41.87,21.94-4.44,43.24-9.16,64.11-18.31l-9.64-6.09c-1.37-.86-2.29-4.85-1.46-6.07,4.79-7.1,23.43,6.72,28.74,11.43,6.8,6.04,16.22,8.89,24.86,5.4,5.23-2.12,8.49-6.65,12.33-10.7,3.07-3.25,7.93-4.84,12.04-7.13,4-2.23,5.78-8.13,5.04-12.83-1.35-8.7-10.23-22.22-4.84-20.97ZM301.28,613.86c-2.45,5.34-7.48,6.6-12.57,6.87,3.51,4.8,9.82,6.73,15.05,3.97,3.55-1.87,7.21-6.14,9.11-9.7-1.84-12.05-4.02-23.02-5.03-35.06l-4.06-48.88c-1.54-18.56-3.78-36.47-7.71-54.61-3.58-16.49-30.61-45.27-48.99-30.37-6.84,5.54-9.2,14.31-9.4,22.99-.5,22.18,5.76,43.36,16.55,62.57l14.4,25.64c6.22,11.09,9.31,22.49,10.61,35.95,1.4-8.01,5.78-21.45,15.86-19.17,10.69,2.42,13.12,24.67,6.19,39.8ZM738.6,573.95c10.75-.92,13.18,12.73,15.06,20.27,1.14-12.45,3.31-23.63,9.25-34.18l16.59-29.5c10.73-19.07,16.48-40.45,15.64-62.53-.33-8.51-3.56-16.91-10.1-22.14-17.59-14.07-44.21,13.3-47.21,28.65-6.6,33.75-9.26,67.18-11.92,101.41-1.06,13.7-2.88,25.86-5.7,39.06,1.52,4.59,6.52,9.17,10.96,10.47,5.33,1.56,10.19-.78,12.65-4.85-6.22,0-11.52-2.85-13.68-8.82-5.07-13.97-3.38-36.82,8.46-37.84ZM609.57,596.73c-26.63-.22-36.27,7.23-64.97.58-9.69-2.25-17.59-7.68-23.52-15.87-12.47,20.92-46.58,20.08-67.11,16.66-8.86-1.48-17.43-2.16-26.28-.69,53.2,34.1,130.75,37.77,181.88-.68ZM558.96,647.9c1.71-.66,5.34.22,5.66,1.61.28,1.19-.17,4.2-1.16,4.95l-5.23,3.94c-1.02,6.57-3.05,12.52-6.76,17.96-4.47,6.56-4.05,14.66.08,20.69,8.93,13.02,25.15,6.01,36.47.26,26.31-13.37,42.46-44.01,41.15-73.35-.38-8.43-1.44-17.24-8.01-24.04-55.47,46.58-143.62,43.4-202.15,2.71-10.05,14.24-6.06,37.72-.68,53.11,5.62,16.07,16.17,29.16,30.61,38.25,12.68,7.98,33.62,18.29,43.13,1.46,4.13-7.31,3-14.35-2.29-21.3-3.55-4.65-5.01-10.76-6.92-16.09-.6-1.68-4.21-3.91-3.11-6.45,3.52-8.15,30.71,14.92,79.22-3.7ZM448.92,893.11c39.64,10.47,77.22,10.51,116.75-.15,13.48-3.64,26.08-7.4,38.8-13.45,19.65-9.35,38.89-19.23,54.54-34.46l15.3-14.89c3.17-3.09,13.07-18.28,1.67-25.31-3.64-2.24-8.32-3.5-12.57-4.07l2.86,20.29c.2,1.38-1.56,4.51-2.81,4.6-6.06.46-8.84-16.54-9.7-21.63-3.83-22.94-3.09-45.47-.74-69.26-22.8,23.22-37.18,34.78-66.04,48.5-14.72,6.6-30.15,10.23-46.38,11.13l-25.63,1.42c-47.13,2.62-93.34-22.73-126.81-54.91l2.67,21.12c2.09,16.54,4.61,73.07-10.15,81.94-1.97,1.19-3.37-4.09-3.11-5.87l3.41-23.18c-3.98,2.65-8.02,4.87-10.83,8.3-5.56,6.78-4.58,17.36.23,24.39,16.67,24.37,50.85,38.18,78.53,45.49Z"/>
    <path d="M383.58,586.24l-4.68,16.03c-3.94-4.17-2.72-8.49-2.37-12.88,1.22-15.7,11.22-28.01,26.46-32.63,10.39-3.15,20.66-8.56,28.64-15.78.41-.37,1.98-.68,2.52-.63.72.07.48,2.6.06,3.21-17.29,24.65-42.23,13.96-50.62,42.68Z"/>
    <path d="M663.6,602.54c-6.97-13.5-4.42-28.86-22.81-37.14l-18.96-8.53c-8.83-3.97-19.54-19.97-13.36-16.64,7.05,3.79,13.46,11.58,28.57,15.75,20.17,5.57,33.23,25.48,26.56,46.56Z"/>
    <path d="M284.46,511.46c-12.34,11.95-4.02,32.97,6.97,43.25.76.71.33,3.96-.8,3.77-7.1-1.22-13.71-7.31-17-14.05-7.18-14.71-6.54-31.3,6.77-42.67-5.44-14.64-16.43-27.48-28.58-36.16-.76-.54-.18-3.52.71-3.8,7.54-2.3,17.37,6.43,22.32,12.39,10.53,12.69,17.27,27.24,21.72,43.2,1.29,4.64,4.1,16.98-.3,19.8-.84.54-3.5-.54-3.84-1.63-2.38-7.74-4.99-15.99-7.97-24.1Z"/>
    <path d="M740.44,558.02c-3.51-1.93,14.17-11.57,13.98-30.89-.06-5.99-.48-11.26-6-15.62-4.81,7.87-5.65,24.46-10.22,26.1-1.13.4-3.46-1.95-3.6-3.17-.75-6.47.52-12.35,2.23-18.63,4.69-17.25,12.64-32.95,25.01-45.93,7.88-8.27,19.25-10.89,19.2-6.14-.01,1.12-1.43,2.95-2.65,3.81-12.05,8.48-20.2,20.7-26.24,34.07,5.54,4.5,9.08,9.82,10.63,16.55,3.49,15.18-3.79,35.77-19.93,40.24-.65.18-1.94-.14-2.4-.4Z"/>
  </g>
  <g>
    <path d="M372.54,498.02l-19.32,4.79c-.85.21-2.93-.49-3.54-.83-.76-.42.01-3.2.75-3.8,4.86-3.91,11.64-6.57,17.58-8.48-19.96-33.5-15.92-90.47,16.15-114.42,19.93-14.89,46.37-11.74,63.07,7.01,27.66,31.05,28.5,86.14,1.95,119.11l7.15,6.18c1.11.96.91,4.97.02,6.04-1.02,1.23-4.22,1.27-5.99.13-8.03-5.17-15.76-9.46-25.01-12.09-17.05-4.85-34.99-8.05-52.81-3.64ZM388.69,447.53l29.02-15.57-27.39-15.71c4.51-17.77,10.94-31.71,25.77-41.03-8.86-.95-17.12,1-24.02,5.84-31.31,21.92-34.23,75.54-14.81,106.37l23.98-.19c-8.38-11.74-12-25.03-12.54-39.7Z"/>
    <path d="M663.75,497.42c-25.64-3.13-53.91,2.09-75.09,16.7-1.22.84-4.27.59-5.25-.06-1.14-.76-1.75-4.19-.98-5.38,1.95-3.01,4.48-4.73,7.94-7.04-26.48-32.94-26.43-86.88,1.21-118.77,17.03-19.64,44.97-22.86,65.19-6.45,30.52,24.76,34.02,80.09,15.01,113.27,5.5,1.79,18.77,6.19,17.82,11.81-.68,4.04-15.94-2.87-25.86-4.08ZM603.66,447.11l28.51-15.06-26.97-15.73c3.4-16.32,9.79-30.98,24.94-40.86-11.98-1.74-22.8,3.97-30.9,12.89-25.82,28.46-25.22,79.65-.44,108.67l18.9-6.36c-8.84-12.86-14.84-28.07-14.03-43.55Z"/>
    <path d="M676.15,360.03c-28.48-24.69-58.91-19.11-91.24-8.94-5.81,1.83-12.13,3.64-18.05,1.94-5.39-1.55-8.54-6.77-9.23-11.26-1.63-10.57,6.38-18.12,15.64-21.37,22.55-7.93,46.93-9.37,69.91-2.71,18.05,5.23,32.3,16.04,42.74,31.31,3.77,5.51,15.18,23.93,10.85,29.22-.7.85-3.36.08-4.1-.76-5.54-6.28-10.36-12.08-16.54-17.43Z"/>
    <path d="M467.06,353.72c-18.44-1.32-49.96-21.15-85.93-5.33-8.54,3.76-16.61,9.04-22.93,15.76l-12.61,13.41c-.6.64-2.36,1.21-3.09,1.15-.91-.08-1.97-2.67-1.78-3.78,1.72-10.23,7.32-19.42,13.41-27.68,10.94-14.85,25.05-25.17,43.17-29.97,21.23-5.63,43.34-4.65,64.46,1.64,10.25,3.05,19.97,9.2,19.7,21.13-.18,7.93-6.22,14.25-14.4,13.66Z"/>
    <path d="M542.2,482.63c.07.92-1.45,3.45-2.09,4.1-.77.78-3.27-1.01-3.74-2.4-8.44-25.12-8.75-51.57-2.36-77.4,1.38-5.6,9.14-29.62,15.01-28.36.79.17,1.79,2.49,1.49,3.25-8.69,21.9-12.26,45.4-10.57,69.08l2.26,31.74Z"/>
  </g>
</svg>